<svg xmlns="http://www.w3.org/2000/svg" width="22.924" height="20.059" viewBox="0 0 22.924 20.059">
  <path id="Icon_metro-printer" data-name="Icon metro-printer" d="M8.3,3.856H19.764V6.722H8.3V3.856Zm15.76,4.3H4A1.437,1.437,0,0,0,2.571,9.587v7.164A1.437,1.437,0,0,0,4,18.184H8.3v5.731H19.764V18.184h4.3a1.437,1.437,0,0,0,1.433-1.433V9.587a1.437,1.437,0,0,0-1.433-1.433Zm-18.626,4.3A1.433,1.433,0,1,1,6.869,11.02a1.433,1.433,0,0,1-1.433,1.433ZM18.331,22.482h-8.6V15.318h8.6Z" transform="translate(-2.571 -3.856)" fill="#306"/>
</svg>
